<?xml version="1.0" encoding="iso-8859-1"?>
<!-- Generator: Adobe Illustrator 19.0.0, SVG Export Plug-In . SVG Version: 6.00 Build 0)  -->
<svg version="1.1" id="Layer_1" xmlns="http://www.w3.org/2000/svg" xmlns:xlink="http://www.w3.org/1999/xlink" x="0px" y="0px"
	 viewBox="0 0 512 512" style="enable-background:new 0 0 512 512;" xml:space="preserve">
<g>
	<g>
		<path d="M384.609,198.639v54.536c0,63.393-50.222,115.269-112.967,117.95v-38.622c50.831-1.359,91.764-43.129,91.764-94.282
			V94.318C363.405,42.311,321.095,0,269.088,0h-26.175c-52.007,0-94.318,42.311-94.318,94.318V238.22
			c0,51.153,40.933,92.923,91.764,94.282v38.622c-62.745-2.681-112.967-54.557-112.967-117.95v-54.536H96.108v54.536
			c0,80.645,64.251,146.554,144.25,149.253v78.289h-54.745V512h140.774v-31.283h-54.745v-78.289
			c79.999-2.7,144.25-68.609,144.25-149.253v-54.536H384.609z M179.878,94.318c0-34.758,28.278-63.035,63.035-63.035h26.175
			c34.758,0,63.034,28.278,63.034,63.035v4.642H179.878V94.318z M179.878,130.244h152.244v69.862H179.878V130.244z M269.088,301.255
			h-26.175c-34.758,0-63.035-28.277-63.035-63.034v-6.831h152.244v6.831C332.122,272.978,303.845,301.255,269.088,301.255z"/>
	</g>
</g>
<g>
</g>
<g>
</g>
<g>
</g>
<g>
</g>
<g>
</g>
<g>
</g>
<g>
</g>
<g>
</g>
<g>
</g>
<g>
</g>
<g>
</g>
<g>
</g>
<g>
</g>
<g>
</g>
<g>
</g>
</svg>
